<mxfile host="app.diagrams.net" modified="2024-07-16T08:23:43.784Z" agent="Mozilla/5.0 (Macintosh; Intel Mac OS X 10_15_7) AppleWebKit/537.36 (KHTML, like Gecko) Chrome/124.0.0.0 Safari/537.36" version="24.6.4" etag="Eb9XvKCBsWM3Xz2sW9MK" type="github">
  <diagram name="Strona-1" id="5xtRwjH4PlyifB3kA8yV">
    <mxGraphModel>
      <root>
        <mxCell id="0" />
        <mxCell id="1" parent="0" />
      </root>
    </mxGraphModel>
  </diagram>
</mxfile>
